<svg xmlns="http://www.w3.org/2000/svg">
    <symbol
        viewBox="0 0 44 44"
        fill="none"
        id="globe"
    >
        <path
            d="M21.5 41C31.9934 41 40.5 32.4934 40.5 22C40.5 11.5066 31.9934 3 21.5 3C11.0066 3 2.5 11.5066 2.5 22C2.5 32.4934 11.0066 41 21.5 41Z"
            fill="#8BD3DD"
            stroke="var(--stroke)"
            stroke-width="var(--stroke-width)"
        />
        <path
            d="M27.8356 22C27.8356 27.4847 26.9996 32.3943 25.6899 35.8852C25.0337 37.6357 24.2813 38.9657 23.5112 39.8347C22.7411 40.7036 22.0596 41 21.5023 41C20.9449 41 20.2609 40.7036 19.4908 39.8347C18.7232 38.9657 17.9708 37.6357 17.3121 35.8852C16.0049 32.3943 15.1689 27.4847 15.1689 22C15.1689 16.5153 16.0049 11.6057 17.3147 8.1148C17.9708 6.36427 18.7232 5.03427 19.4933 4.16533C20.2635 3.2964 20.9449 3 21.5023 3C22.0596 3 22.7436 3.2964 23.5137 4.16533C24.2813 5.03427 25.0337 6.36427 25.6924 8.1148C26.9996 11.6057 27.8356 16.5153 27.8356 22Z"
            fill="#8BD3DD"
            stroke="var(--stroke)"
            stroke-width="var(--stroke-width)"
        />
        <path
            d="M2.5 22H40.5H2.5Z"
            fill="#8BD3DD"
        />
        <path
            d="M2.5 22H40.5"
            stroke="var(--stroke)"
            stroke-width="var(--stroke-width)"
            stroke-linecap="round"
        />
    </symbol>

    <symbol
        viewBox="0 0 30 26"
        fill="none"
        id="arrow-down"
    >
        <path
            d="M13.1577 22.078L3.13982 7.76087C1.73338 5.756 3.1679 3.00146 5.61566 3.00146H24.2428C26.6905 3.00146 28.1251 5.756 26.7208 7.76087L16.6986 22.078C16.4994 22.3623 16.2345 22.5945 15.9265 22.7548C15.6185 22.9151 15.2764 22.9987 14.9292 22.9987C14.582 22.9987 14.2399 22.9151 13.9319 22.7548C13.6239 22.5945 13.3569 22.3623 13.1577 22.078Z"
            fill="#8BD3DD"
            stroke="var(--stroke)"
            stroke-width="var(--stroke-width)"
        />
    </symbol>

    <symbol
        id="sun"
        viewBox="0 0 24 24"
    >
        <path
            fill="currentColor"
            stroke-linecap="round"
            stroke-linejoin="round"
            stroke="var(--stroke)"
            stroke-width="2"
            d="M12 3v1m0 16v1m9-9h-1M4 12H3m15.364 6.364l-.707-.707M6.343 6.343l-.707-.707m12.728 0l-.707.707M6.343 17.657l-.707.707M16 12a4 4 0 11-8 0 4 4 0 018 0z"
        ></path>
    </symbol>

    <symbol
        id="moon"
        fill="currentColor"
        viewBox="0 0 24 24"
    >
        <path
            stroke-linecap="round"
            stroke-linejoin="round"
            stroke="var(--stroke)"
            stroke-width="2"
            d="M20.354 15.354A9 9 0 018.646 3.646 9.003 9.003 0 0012 21a9.003 9.003 0 008.354-5.646z"
        ></path>
    </symbol>
    <symbol
        id="home"
        viewBox="0 0 126 126"
    >
        <rect
            x="3"
            y="3"
            width="120"
            height="120"
            rx="30"
            fill="#D4BCEB"
            stroke="#21005D"
            stroke-width="5"
        />
        <path
            id="Vector"
            d="M27 64.9708C27 59.7281 27 57.1119 28.1417 54.8747C29.2783 52.6427 31.392 51.1166 35.6143 48.0748L57.8571 31.0845C59.4 30.0563 61.4571 28 63 28C64.5429 28 66.0857 29.5423 68.1429 31.0841L90.3857 48.0696C94.608 51.1166 96.7217 52.6375 97.8583 54.8747C98.9949 57.1119 99 59.7281 99 64.9656V90.6184C99 95.5133 99 97.9582 97.4932 99.4791C95.9863 101 93.564 101 88.7143 101H37.2857C32.436 101 30.0137 101 28.5069 99.4791C27 97.9582 27 95.5133 27 90.6184V64.9708Z"
            fill="#FEF6E4"
            stroke="#21005D"
            stroke-width="5"
        />

        <path
            d="M18 59.3068C18 60.5944 18 61.2431 18.42 61.4415C18.84 61.64 19.37 61.2479 20.42 60.4492L56.86 33.0119C59.81 30.79 61.285 29.6815 63 29.6815C64.715 29.6815 66.19 30.7948 69.14 33.0119L105.58 60.4492C106.63 61.2431 107.16 61.64 107.58 61.4415C108 61.2431 108 60.5944 108 59.3068V57.3269C108 55.0033 108 53.8416 107.49 52.8347C106.98 51.8278 106.035 51.1114 104.14 49.6882L86.64 36.5093L69.14 23.3304C66.19 21.1085 64.715 20 63 20C61.285 20 59.81 21.1134 56.86 23.3304L21.86 49.6882C19.965 51.1114 19.015 51.8278 18.51 52.8347C18.005 53.8416 18 55.0033 18 57.3269V59.3068ZM65.5 71.9556H60.5C57.8478 71.9556 55.3043 72.9756 53.4289 74.7912C51.5536 76.6069 50.5 79.0694 50.5 81.6371V100.274C50.5 100.676 50.835 101 51.25 101H74.75C74.9489 101 75.1397 100.923 75.2803 100.787C75.421 100.651 75.5 100.466 75.5 100.274V81.6371C75.5 79.0694 74.4464 76.6069 72.5711 74.7912C70.6957 72.9756 68.1522 71.9556 65.5 71.9556Z"
            stroke="#21005D"
            fill="#21005D"
        />

        <path
            d="M90.5 23.2002H85.5C84.1193 23.2002 83 24.3195 83 25.7002V40.7002C83 42.0809 84.1193 43.2002 85.5 43.2002H90.5C91.8807 43.2002 93 42.0809 93 40.7002V25.7002C93 24.3195 91.8807 23.2002 90.5 23.2002Z"
            fill="#21005D"
            stroke="#21005D"
            stroke-width="5"
        />
    </symbol>


    <symbol
        viewBox="0 0 121 125"
        id="camera"
    >
        <rect
            id="bg"
            x="2.84277"
            y="2.5"
            fill="#FFB699"
            width="115"
            height="115"
            rx="27.5"
            stroke="var(--stroke)"
            stroke-width="5"
        />
        <path
            fill-rule="evenodd"
            clip-rule="evenodd"
            d="M24.6128 40C19.4928 40 15.3428 44.15 15.3428 49.27V74.285C15.3428 84.31 15.3428 89.32 17.6428 92.985C18.8422 94.8911 20.4554 96.5026 22.3628 97.7C26.0228 100 31.0328 100 41.0578 100H79.6278C89.6528 100 94.6628 100 98.3278 97.7C100.234 96.5006 101.845 94.8873 103.043 92.98C105.343 89.32 105.343 84.31 105.343 74.285V49.27C105.343 44.15 101.193 40 96.0728 40C94.3509 40.002 92.6626 39.5233 91.198 38.6179C89.7334 37.7125 88.5506 36.4162 87.7828 34.875L83.6778 26.665C83.1278 25.565 82.8528 25.015 82.5378 24.54C81.735 23.308 80.6704 22.2683 79.4199 21.4948C78.1693 20.7213 76.7636 20.2331 75.3028 20.065C74.7328 20 74.1178 20 72.8878 20H47.7978C46.5678 20 45.9478 20 45.3828 20.065C43.922 20.2331 42.5162 20.7213 41.2657 21.4948C40.0151 22.2683 38.9505 23.308 38.1478 24.54C37.8328 25.015 37.5578 25.565 37.0078 26.665L32.9078 34.875C32.1392 36.4177 30.9548 37.715 29.4883 38.6205C28.0217 39.5261 26.3364 40.0039 24.6128 40ZM60.3428 85C65.6471 85 70.7342 82.8929 74.4849 79.1421C78.2356 75.3914 80.3428 70.3043 80.3428 65C80.3428 59.6957 78.2356 54.6086 74.4849 50.8579C70.7342 47.1071 65.6471 45 60.3428 45C55.0384 45 49.9514 47.1071 46.2006 50.8579C42.4499 54.6086 40.3428 59.6957 40.3428 65C40.3428 70.3043 42.4499 75.3914 46.2006 79.1421C49.9514 82.8929 55.0384 85 60.3428 85Z"
            fill="var(--white-dark)"
            stroke="var(--stroke)"
            stroke-width="5"
        />
        <path
            d="M15.3428 49.27C15.3428 44.15 19.4928 40 24.6128 40C28.1228 40 31.3328 38.015 32.9028 34.875L37.0078 26.665C37.5578 25.565 37.8328 25.015 38.1478 24.54C38.9505 23.308 40.0151 22.2683 41.2657 21.4948C42.5162 20.7213 43.922 20.2331 45.3828 20.065C45.9528 20 46.5678 20 47.7978 20H72.8878C74.1178 20 74.7378 20 75.2978 20.065C76.7594 20.2324 78.1662 20.7203 79.4176 21.4938C80.6691 22.2673 81.7345 23.3074 82.5378 24.54C82.8528 25.015 83.1278 25.565 83.6778 26.665L87.7778 34.875C88.5464 36.4177 89.7308 37.715 91.1973 38.6205C92.6638 39.5261 94.3542 40.0039 96.0778 40C101.193 40 105.343 44.15 105.343 49.27V74.285C105.343 84.31 105.343 89.32 103.043 92.985C101.843 94.8911 100.23 96.5026 98.3228 97.7C94.6628 100 89.6528 100 79.6278 100H41.0578C31.0328 100 26.0228 100 22.3578 97.7C20.4517 96.5006 18.8402 94.8873 17.6428 92.98C15.3428 89.32 15.3428 84.31 15.3428 74.285V49.27Z"
            fill="var(--white-dark)"
            stroke="var(--stroke)"
            stroke-width="5"
        />
        <path
            d="M60.3369 81.9987C69.7258 81.9987 77.337 74.3876 77.337 64.9988C77.337 55.6099 69.7258 47.9988 60.3369 47.9988C50.9481 47.9988 43.3369 55.6099 43.3369 64.9988C43.3369 74.3876 50.9481 81.9987 60.3369 81.9987Z"
            fill="var(--stroke)"
            stroke="var(--stroke)"
            stroke-width="5"
        />

    </symbol>

    <symbol
        id="book"
        viewBox="0 0 126 131"
    >
        <rect
            x="2.9209"
            y="3"
            width="120"
            height="120"
            rx="30"
            stroke="var(--stroke)"
            fill="#F7EAA1"
            stroke-width="5"
        />
        <path
            d="M62.9209 104.25C62.9209 100.272 61.3405 96.4565 58.5275 93.6435C55.7145 90.8304 51.8991 89.2501 47.9209 89.2501H27.9209C23.2059 89.2501 20.8509 89.2501 19.3859 87.7851C17.9209 86.3201 17.9209 83.9651 17.9209 79.2501V34.25C17.9209 29.535 17.9209 27.18 19.3859 25.715C20.8509 24.25 23.2059 24.25 27.9209 24.25H32.9209C47.0609 24.25 54.1359 24.25 58.5259 28.645C62.9209 33.035 62.9209 40.11 62.9209 54.25M62.9209 104.25V54.25M62.9209 104.25C62.9209 100.272 64.5012 96.4565 67.3143 93.6435C70.1273 90.8304 73.9427 89.2501 77.9209 89.2501H97.9209C102.636 89.2501 104.991 89.2501 106.456 87.7851C107.921 86.3201 107.921 83.9651 107.921 79.2501V34.25C107.921 29.535 107.921 27.18 106.456 25.715C104.991 24.25 102.636 24.25 97.9209 24.25H92.9209C78.7809 24.25 71.7059 24.25 67.3159 28.645C62.9209 33.035 62.9209 40.11 62.9209 54.25"
            stroke="var(--stroke)"
            fill="var(--white-dark)"
            stroke-width="5"
        />


    </symbol>

    <symbol
        id="user"
        viewBox="0 0 125 131"
    >
        <rect
            x="2.5"
            y="3"
            width="120"
            height="120"
            rx="30"
            fill="#C3F0CA"
            stroke="var(--stroke)"
            stroke-width="5"
        />
        <path
            d="M62.5 108C87.3528 108 107.5 87.8528 107.5 63C107.5 38.1472 87.3528 18 62.5 18C37.6472 18 17.5 38.1472 17.5 63C17.5 87.8528 37.6472 108 62.5 108Z"
            fill="var(--white-dark)"
            stroke="var(--stroke)"
            stroke-width="5"
            stroke-linecap="round"
        />
        <path
            d="M52.2461 68.921C53.2874 70.7187 54.783 72.2111 56.5829 73.2485C58.3828 74.286 60.4239 74.8321 62.5014 74.8321C64.5789 74.8321 66.6199 74.286 68.4198 73.2485C70.2197 72.2111 71.7153 70.7187 72.7566 68.921"
            stroke="var(--stroke)"
            stroke-width="5"
            fill="none"
            stroke-linecap="round"
        />
        <path
            id="eye-left"
            d="M48.0986 48.6001C48.0986 46.0887 46.0627 44.0527 43.5513 44.0527C41.0398 44.0527 39.0039 46.0887 39.0039 48.6001C39.0039 51.1115 40.3612 53.1475 42.0355 53.1475H45.0671C46.7414 53.1475 48.0986 51.1115 48.0986 48.6001Z"
            fill="var(--stroke)"
        />
        <path
            id="eye-right"
            d="M85.9941 48.6001C85.9941 46.0887 83.9582 44.0527 81.4468 44.0527C78.9353 44.0527 76.8994 46.0887 76.8994 48.6001C76.8994 51.1116 78.2567 53.1475 79.931 53.1475H82.9626C84.6369 53.1475 85.9941 51.1116 85.9941 48.6001Z"
            fill="var(--stroke)"
        />

    </symbol>

    <symbol
        id="folder"
        viewBox="0 0 126 136"
    >
        <rect
            x="3"
            y="3"
            width="120"
            height="120"
            rx="30"
            fill="#F9AFCB"
            stroke="var(--stroke)"
            stroke-width="5"
            stroke-linejoin="round"
        />
        <path
            d="M26 48C26 43.2 26.005 39.9 26.34 37.425C26.66 35.035 27.24 33.865 28.05 33.05C28.86 32.235 30.035 31.66 32.425 31.34C34.905 31 38.2 31 43 31H44.715C49.05 31 50.38 31.05 51.535 31.535C52.695 32.015 53.675 32.915 56.735 35.98L60.02 39.265L60.395 39.64C62.92 42.165 64.77 44.015 67.165 45.01C69.56 46.005 72.185 46.005 75.75 46H83C87.8 46 91.1 46.005 93.575 46.34C95.965 46.66 97.135 47.24 97.95 48.05C98.765 48.86 99.34 50.035 99.66 52.425C99.995 54.905 100 58.2 100 63V78C100 82.8 99.995 86.1 99.66 88.575C99.34 90.965 98.76 92.135 97.95 92.95C97.14 93.765 95.965 94.34 93.575 94.66C91.095 94.995 87.8 95 83 95H43C38.2 95 34.9 94.995 32.425 94.66C30.035 94.34 28.865 93.76 28.05 92.95C27.235 92.14 26.66 90.965 26.34 88.575C26 86.095 26 82.8 26 78V48Z"
            fill="var(--white-dark)"
            stroke="var(--stroke)"
            stroke-width="5"
        />
    </symbol>

</svg>